<?xml version="1.0" encoding="utf-8"?>
<!-- Svg Vector Icons : http://www.onlinewebfonts.com/icon -->
<!DOCTYPE svg PUBLIC "-//W3C//DTD SVG 1.1//EN" "http://www.w3.org/Graphics/SVG/1.1/DTD/svg11.dtd">
<svg version="1.1" xmlns="http://www.w3.org/2000/svg" xmlns:xlink="http://www.w3.org/1999/xlink" x="0px" y="0px" viewBox="0 0 1000 1000" enable-background="new 0 0 1000 1000" xml:space="preserve">
<metadata> Svg Vector Icons : http://www.onlinewebfonts.com/icon </metadata>
<g><path d="M418.2,127.2c-13.9-13.9-36.4-14-50.2-0.2L20.3,474.7C6.5,488.5,6.6,511,20.5,524.9l0,0c13.9,13.9,36.4,14,50.2,0.2l347.8-347.8C432.2,163.5,432.1,141.1,418.2,127.2L418.2,127.2z"/><path d="M418.2,872.8c13.9-13.9,14-36.4,0.2-50.2L70.7,474.9c-13.8-13.8-36.3-13.7-50.2,0.2l0,0c-13.9,13.9-14,36.4-0.2,50.2L368,873C381.8,886.8,404.3,886.7,418.2,872.8L418.2,872.8z"/><path d="M81.7,499.8c0,19.2,15.6,34.8,34.8,34.8h838.7c19.2,0,34.8-15.6,34.8-34.8l0,0c0-19.2-15.6-34.8-34.8-34.8H116.5C97.3,465,81.7,480.6,81.7,499.8L81.7,499.8z"/></g>
</svg>